<svg width="1920" height="68" viewBox="0 0 1920 68" fill="none" xmlns="http://www.w3.org/2000/svg">
<path d="M1868.5 2.80556C1879 2.10048 1890.9 1.29466 1895 0.791031C1899.1 0.388125 1906.8 0.0217968 1920 0.22325V68H0V0.223226C8.99951 -0.278956 15.9995 0.223095 15.9995 0.223095C15.9995 0.223095 32 1.39539 46 2.30193C60 3.20847 79.4 4.82009 89 5.92808C98.6 6.93534 113.9 9.0506 123 10.4608C132.1 11.8709 145.1 14.1876 152 15.5978C158.9 17.008 172.2 19.9291 181.5 22.0443C190.8 24.2603 207.9 27.9872 219.5 30.5053C231.1 32.9228 247.5 36.2467 256 37.9591C264.5 39.6714 282.3 42.794 295.5 45.0099C308.7 47.2259 327.8 50.147 338 51.5572C348.2 52.9673 363.9 54.9819 373 56.0899C382.1 57.1978 396.7 58.8095 405.5 59.6153C414.3 60.5218 431.2 61.932 443 62.7378C454.8 63.5436 480.5 64.7523 500 65.4574C527.5 66.3639 543.6 66.3639 571.5 65.4574C591.3 64.7523 615.1 63.5436 624.5 62.7378C633.9 61.932 648 60.5218 656 59.716L657.75 59.5179C665.628 58.6263 676.146 57.4359 682 56.5935C688.3 55.7877 706.5 52.8666 722.5 50.0463C738.5 47.3266 755.1 44.4056 759.5 43.5998C763.9 42.6932 774 41.1823 782 40.0743C790 38.8656 804.8 37.0526 815 35.9446C825.2 34.9373 838.5 33.5271 844.5 33.0235C850.5 32.5199 867.4 31.4119 882 30.5053C899.3 29.4981 926.3 28.9944 960 28.9944C993.7 28.9944 1020.7 29.4981 1038 30.5053C1052.6 31.4119 1069.5 32.5199 1075.5 33.0235C1081.5 33.5271 1094.8 34.9373 1105 36.0453C1115.2 37.1533 1130.2 38.9664 1138.5 40.0743C1146.7 41.1823 1166.8 44.4056 1183 47.2259C1199.2 50.0463 1219.2 53.471 1227.5 54.7804C1235.7 56.0898 1250.4 58.1044 1260 59.2124C1269.6 60.3204 1285.6 61.8313 1295.5 62.7378C1305.4 63.5436 1329.5 64.7523 1349 65.4574C1376.2 66.3639 1392.8 66.3639 1420 65.4574C1439.5 64.7523 1465.2 63.5436 1477 62.7378C1488.8 61.932 1505.7 60.5218 1514.5 59.6153C1523.3 58.8095 1537.9 57.1978 1547 56.0899C1556.1 54.9819 1571.8 52.9673 1582 51.5572C1592.2 50.147 1611.3 47.2259 1624.5 45.0099C1637.7 42.794 1655.5 39.6714 1664 37.9591C1672.5 36.2467 1689 32.9228 1700.5 30.5053C1712 27.9872 1729.2 24.2603 1738.5 22.0443C1747.8 19.9291 1761.1 17.008 1768 15.5978C1774.9 14.1876 1787.9 11.8709 1797 10.4608C1806.1 9.0506 1821.6 6.93534 1831.5 5.92808C1841.4 4.82009 1858 3.40992 1868.5 2.80556Z" fill="#6E23E8"/>
</svg>
