<svg width="1920" height="140" viewBox="0 0 1920 140" fill="none" xmlns="http://www.w3.org/2000/svg">
<path d="M1868.5 3.57191C1879 2.86971 1890.9 2.06719 1895 1.56562C1899.1 1.16436 1906.8 0.799524 1920 1.00015V140H0.000488281V1.00013C9 0.5 16 1 16 1C16 1 32.0005 2.16751 46.0005 3.07034C60.0005 3.97317 79.4005 5.57821 89.0005 6.68167C98.6005 7.68482 113.9 9.79144 123 11.1958C132.1 12.6003 145.101 14.9075 152.001 16.3119C158.901 17.7163 172.201 20.6254 181.501 22.7321C190.801 24.939 207.901 28.6506 219.501 31.1585C231.101 33.5661 247.501 36.8765 256.001 38.5818C264.501 40.2872 282.301 43.3969 295.501 45.6039C308.701 47.8108 327.801 50.7199 338.001 52.1243C348.201 53.5287 363.901 55.535 373.001 56.6385C382.101 57.742 396.701 59.347 405.501 60.1495C414.301 61.0524 431.201 62.4568 443.001 63.2593C454.801 64.0618 480.501 65.2656 500.001 65.9678C527.501 66.8706 543.601 66.8706 571.501 65.9678C591.301 65.2656 615.101 64.0618 624.501 63.2593C633.901 62.4568 648.001 61.0524 656.001 60.2498L657.751 60.0524C665.629 59.1645 676.146 57.979 682.001 57.1401C688.301 56.3376 706.501 53.4284 722.501 50.6196C738.501 47.9111 755.101 45.002 759.501 44.1995C763.901 43.2966 774.001 41.7919 782.001 40.6884C790.001 39.4847 804.801 37.679 815.001 36.5755C825.201 35.5724 838.501 34.168 844.501 33.6664C850.501 33.1648 867.401 32.0613 882.001 31.1585C899.301 30.1554 926.301 29.6538 960.001 29.6538C993.701 29.6538 1020.7 30.1554 1038 31.1585C1052.6 32.0613 1069.5 33.1648 1075.5 33.6664C1081.5 34.168 1094.8 35.5724 1105 36.6758C1115.2 37.7793 1130.2 39.585 1138.5 40.6884C1146.7 41.7919 1166.8 45.002 1183 47.8108C1199.2 50.6196 1219.2 54.0303 1227.5 55.3344C1235.7 56.6385 1250.4 58.6448 1260 59.7483C1269.6 60.8517 1285.6 62.3564 1295.5 63.2593C1305.4 64.0618 1329.5 65.2656 1349 65.9678C1376.2 66.8706 1392.8 66.8706 1420 65.9678C1439.5 65.2656 1465.2 64.0618 1477 63.2593C1488.8 62.4568 1505.7 61.0524 1514.5 60.1495C1523.3 59.347 1537.9 57.742 1547 56.6385C1556.1 55.535 1571.8 53.5287 1582 52.1243C1592.2 50.7199 1611.3 47.8108 1624.5 45.6039C1637.7 43.3969 1655.5 40.2872 1664 38.5818C1672.5 36.8765 1689 33.5661 1700.5 31.1585C1712 28.6506 1729.2 24.939 1738.5 22.7321C1747.8 20.6254 1761.1 17.7163 1768 16.3119C1774.9 14.9075 1787.9 12.6003 1797 11.1958C1806.1 9.79144 1821.6 7.68482 1831.5 6.68167C1841.4 5.57821 1858 4.1738 1868.5 3.57191Z" fill="#6E23E8"/>
</svg>
