<svg width="24" height="24" viewBox="0 0 24 24" fill="none" xmlns="http://www.w3.org/2000/svg">
<path d="M2.52393 17.0664C1.82536 13.7697 1.82536 10.3631 2.52393 7.06641C2.61572 6.73162 2.79307 6.42648 3.03854 6.18101C3.28401 5.93554 3.58914 5.75819 3.92393 5.66641C9.28738 4.77786 14.7605 4.77786 20.1239 5.66641C20.4587 5.75819 20.7639 5.93554 21.0093 6.18101C21.2548 6.42648 21.4321 6.73162 21.5239 7.06641C22.2225 10.3631 22.2225 13.7697 21.5239 17.0664C21.4321 17.4012 21.2548 17.7063 21.0093 17.9518C20.7639 18.1973 20.4587 18.3746 20.1239 18.4664C14.7605 19.3551 9.28737 19.3551 3.92393 18.4664C3.58914 18.3746 3.28401 18.1973 3.03854 17.9518C2.79307 17.7063 2.61572 17.4012 2.52393 17.0664Z" fill="white"/>
<path d="M10 15L15 12L10 9V15Z" fill="#6E23E8"/>
</svg>
